# xmcd CD database file
#
# Track frame offsets:
#	150
#	20534
#	40103
#	61718
#	83260
#	101123
#	120323
#	143661
#	160763
#	183530
#	212034
#	234549
#
# Disc length: 3398 seconds
#
# Revision: 0
# Processed by: cddbd v1.5.2PL0 Copyright (c) Steve Scherf et al.
# Submitted via: CDex 1.70beta2
#
DISCID=8f0d440c
DTITLE=Shirley Scott - Six Classic Albums [CD1)
DYEAR=1900
DGENRE=Jazz
TTITLE0=Sweet Lorraine
TTITLE1=I thought I'd let you know
TTITLE2=I should care
TTITLE3=Spring is here
TTITLE4=I didn't know what time it was
TTITLE5=Gee, baby, ain't I good to you
TTITLE6=Until the real thing comes along
TTITLE7=Lover man
TTITLE8=It could happen to you
TTITLE9=What's new
TTITLE10=The very thought of you
TTITLE11=Serenade in blue
EXTD=
EXTT0=
EXTT1=
EXTT2=
EXTT3=
EXTT4=
EXTT5=
EXTT6=
EXTT7=
EXTT8=
EXTT9=
EXTT10=
EXTT11=
PLAYORDER=
